<?xml version="1.0" standalone="no"?>
<!DOCTYPE svg PUBLIC "-//W3C//DTD SVG 20010904//EN"
 "http://www.w3.org/TR/2001/REC-SVG-20010904/DTD/svg10.dtd">
<svg version="1.0" xmlns="http://www.w3.org/2000/svg"
 width="32.000000pt" height="32.000000pt" viewBox="0 0 32.000000 32.000000"
 preserveAspectRatio="xMidYMid meet">

<g transform="translate(0.000000,32.000000) scale(0.100000,-0.100000)"
fill="#000000" stroke="none">
<path d="M180 229 c-7 -13 -28 -52 -47 -86 -19 -35 -30 -64 -24 -67 14 -9 104
155 92 167 -6 6 -14 0 -21 -14z"/>
<path d="M21 181 l-20 -28 29 -28 c35 -34 49 -28 24 9 -15 25 -15 28 0 45 20
22 20 31 2 31 -8 0 -24 -13 -35 -29z"/>
<path d="M250 203 c0 -3 7 -15 16 -24 15 -17 15 -20 0 -45 -25 -37 -11 -43 24
-9 l29 28 -20 28 c-18 26 -49 40 -49 22z"/>
</g>
</svg>
